<svg width="34" height="34" viewBox="0 0 34 34" fill="none" xmlns="http://www.w3.org/2000/svg">
<rect width="34" height="34" rx="17" fill="#FF7032"/>
<path d="M16.1175 9.95649L16.7124 11.0225C17.2493 11.9845 17.0338 13.2465 16.1882 14.0921C16.1882 14.0922 16.1882 14.0921 16.1882 14.0922C16.188 14.0923 15.1626 15.1179 17.0221 16.9775C18.8811 18.8365 19.9068 17.8123 19.9075 17.8115C19.9075 17.8115 19.9075 17.8115 19.9076 17.8115C20.7532 16.9659 22.0152 16.7504 22.9772 17.2873L24.0432 17.8822C25.4959 18.6929 25.6674 20.7301 24.3905 22.007C23.6233 22.7743 22.6834 23.3713 21.6443 23.4107C19.8952 23.477 16.9248 23.0343 13.9451 20.0546C10.9654 17.0749 10.5227 14.1045 10.589 12.3553C10.6284 11.3163 11.2254 10.3764 11.9927 9.60913C13.2695 8.33226 15.3067 8.50382 16.1175 9.95649Z" stroke="white" stroke-width="1.5" stroke-linecap="round"/>
</svg>
