<svg width="24" height="24" viewBox="0 0 24 24" fill="none" xmlns="http://www.w3.org/2000/svg">
<g clip-path="url(#clip0_3695_2488)">
<path d="M18.9827 6.25465C19.3244 5.91294 19.3244 5.35892 18.9827 5.01722C18.641 4.67551 18.087 4.67551 17.7452 5.01722L18.9827 6.25465ZM5.01732 17.7451C4.67561 18.0868 4.67561 18.6409 5.01732 18.9826C5.35903 19.3243 5.91305 19.3243 6.25476 18.9826L5.01732 17.7451ZM6.25476 5.01722C5.91305 4.67551 5.35903 4.67551 5.01732 5.01722C4.67561 5.35892 4.67561 5.91294 5.01732 6.25465L6.25476 5.01722ZM17.7452 18.9826C18.087 19.3243 18.641 19.3243 18.9827 18.9826C19.3244 18.6409 19.3244 18.0868 18.9827 17.7451L17.7452 18.9826ZM17.7452 5.01722L5.01732 17.7451L6.25476 18.9826L18.9827 6.25465L17.7452 5.01722ZM5.01732 6.25465L17.7452 18.9826L18.9827 17.7451L6.25476 5.01722L5.01732 6.25465Z" fill="#8E8E8E"/>
</g>
<defs>
<clipPath id="clip0_3695_2488">
<rect width="24" height="24" fill="white"/>
</clipPath>
</defs>
</svg>
