<svg width="50" height="50" viewBox="0 0 50 50" fill="none" xmlns="http://www.w3.org/2000/svg">
<circle cx="25" cy="25" r="25" fill="#E83030" fill-opacity="0.1"/>
<path d="M35.6251 17.5H14.375" stroke="#E83030" stroke-width="1.5" stroke-linecap="round"/>
<path d="M33.5418 20.625L32.9669 29.2489C32.7457 32.5675 32.635 34.2268 31.5538 35.2384C30.4725 36.25 28.8095 36.25 25.4835 36.25H24.5168C21.1908 36.25 19.5278 36.25 18.4465 35.2384C17.3653 34.2268 17.2547 32.5675 17.0334 29.2489L16.4585 20.625" stroke="#E83030" stroke-width="1.5" stroke-linecap="round"/>
<path d="M21.875 23.75L22.5 30" stroke="#E83030" stroke-width="1.5" stroke-linecap="round"/>
<path d="M28.125 23.75L27.5 30" stroke="#E83030" stroke-width="1.5" stroke-linecap="round"/>
<path d="M18.125 17.5C18.1948 17.5 18.2298 17.5 18.2614 17.4992C19.2907 17.4731 20.1988 16.8186 20.549 15.8504C20.5598 15.8206 20.5708 15.7875 20.5929 15.7212L20.7143 15.3571C20.8179 15.0463 20.8697 14.8909 20.9384 14.759C21.2125 14.2326 21.7197 13.867 22.3058 13.7735C22.4527 13.75 22.6165 13.75 22.9441 13.75H27.0559C27.3835 13.75 27.5473 13.75 27.6942 13.7735C28.2803 13.867 28.7875 14.2326 29.0616 14.759C29.1303 14.8909 29.1821 15.0463 29.2857 15.3571L29.4071 15.7212C29.4291 15.7874 29.4402 15.8206 29.451 15.8504C29.8012 16.8186 30.7093 17.4731 31.7386 17.4992C31.7702 17.5 31.8052 17.5 31.875 17.5" stroke="#E83030" stroke-width="1.5"/>
</svg>
