<svg width="60" height="40" viewBox="0 0 73 46" fill="none" xmlns="http://www.w3.org/2000/svg">
<rect x="5" y="2" width="68" height="36" rx="18" fill="#D9D9D9"/>
<g filter="url(#filter0_d_146_1143)">
<rect x="7" y="4" width="32" height="32" rx="16" fill="white"/>
</g>
<path d="M12.9165 14.5H33.0832" stroke="#666666" stroke-width="1.5" stroke-linecap="round"/>
<path d="M12.9165 17.25H33.0832" stroke="#666666" stroke-width="1.5" stroke-linecap="round"/>
<path d="M12.9165 22.75H33.0832" stroke="#666666" stroke-width="1.5" stroke-linecap="round"/>
<path d="M12.9165 25.5H33.0832" stroke="#666666" stroke-width="1.5" stroke-linecap="round"/>
<path d="M17.5 12.6667V27.3333C17.5 27.8396 17.9104 28.25 18.4167 28.25H27.5833C28.0896 28.25 28.5 27.8396 28.5 27.3333V12.6667C28.5 12.1604 28.0896 11.75 27.5833 11.75L23 11.7501L18.4167 11.75C17.9104 11.75 17.5 12.1604 17.5 12.6667Z" fill="white" stroke="#666666" stroke-width="1.5"/>
<path d="M23.5893 17.25L21.625 20H24.375L22.4107 22.75" stroke="#666666" stroke-width="1.5" stroke-linecap="round" stroke-linejoin="round"/>
<defs>
<filter id="filter0_d_146_1143" x="0" y="0" width="46" height="46" filterUnits="userSpaceOnUse" color-interpolation-filters="sRGB">
<feFlood flood-opacity="0" result="BackgroundImageFix"/>
<feColorMatrix in="SourceAlpha" type="matrix" values="0 0 0 0 0 0 0 0 0 0 0 0 0 0 0 0 0 0 127 0" result="hardAlpha"/>
<feOffset dy="3"/>
<feGaussianBlur stdDeviation="3.5"/>
<feColorMatrix type="matrix" values="0 0 0 0 0 0 0 0 0 0 0 0 0 0 0 0 0 0 0.12 0"/>
<feBlend mode="normal" in2="BackgroundImageFix" result="effect1_dropShadow_146_1143"/>
<feBlend mode="normal" in="SourceGraphic" in2="effect1_dropShadow_146_1143" result="shape"/>
</filter>
</defs>
</svg>
