<svg width="60" height="40" viewBox="0 0 73 46" fill="none" xmlns="http://www.w3.org/2000/svg">
<rect y="2" width="68" height="36" rx="18" fill="#FF7033"/>
<g filter="url(#filter0_d_146_1145)">
<rect x="34" y="4" width="32" height="32" rx="16" fill="white"/>
</g>
<path d="M7.9165 14.5H28.0832" stroke="white" stroke-width="1.5" stroke-linecap="round"/>
<path d="M7.9165 17.25H28.0832" stroke="white" stroke-width="1.5" stroke-linecap="round"/>
<path d="M7.9165 22.75H28.0832" stroke="white" stroke-width="1.5" stroke-linecap="round"/>
<path d="M7.9165 25.5H28.0832" stroke="white" stroke-width="1.5" stroke-linecap="round"/>
<path d="M12.5 12.6667V27.3333C12.5 27.8396 12.9104 28.25 13.4167 28.25H22.5833C23.0896 28.25 23.5 27.8396 23.5 27.3333V12.6667C23.5 12.1604 23.0896 11.75 22.5833 11.75L18 11.7501L13.4167 11.75C12.9104 11.75 12.5 12.1604 12.5 12.6667Z" fill="#FF7033" stroke="white" stroke-width="1.5"/>
<path d="M18.5893 17.25L16.625 20H19.375L17.4107 22.75" stroke="white" stroke-width="1.5" stroke-linecap="round" stroke-linejoin="round"/>
<defs>
<filter id="filter0_d_146_1145" x="27" y="0" width="46" height="46" filterUnits="userSpaceOnUse" color-interpolation-filters="sRGB">
<feFlood flood-opacity="0" result="BackgroundImageFix"/>
<feColorMatrix in="SourceAlpha" type="matrix" values="0 0 0 0 0 0 0 0 0 0 0 0 0 0 0 0 0 0 127 0" result="hardAlpha"/>
<feOffset dy="3"/>
<feGaussianBlur stdDeviation="3.5"/>
<feColorMatrix type="matrix" values="0 0 0 0 0 0 0 0 0 0 0 0 0 0 0 0 0 0 0.12 0"/>
<feBlend mode="normal" in2="BackgroundImageFix" result="effect1_dropShadow_146_1145"/>
<feBlend mode="normal" in="SourceGraphic" in2="effect1_dropShadow_146_1145" result="shape"/>
</filter>
</defs>
</svg>
