<svg width="50" height="50" viewBox="0 0 50 50" fill="none" xmlns="http://www.w3.org/2000/svg">
<circle cx="25" cy="25" r="25" fill="#FF7032" fill-opacity="0.1"/>
<path d="M16.4645 33.5355C17.9289 35 20.286 35 25 35C29.714 35 32.0711 35 33.5355 33.5355C35 32.0711 35 29.714 35 25C35 24.6585 35 24.4878 34.9848 24.3142C34.9142 23.5049 34.586 22.7126 34.0637 22.0903C33.9516 21.9569 33.828 21.8332 33.5806 21.5858L28.4142 16.4194C28.1668 16.1721 28.0431 16.0483 27.9097 15.9363C27.2874 15.414 26.4951 15.0858 25.6858 15.0152C25.5122 15 25.3415 15 25 15C20.286 15 17.9289 15 16.4645 16.4645C15 17.9289 15 20.286 15 25C15 29.714 15 32.0711 16.4645 33.5355Z" stroke="#FF7032" stroke-width="1.5"/>
<path d="M25 25H24.5C23.0955 25 22.3933 25 21.8889 25.3371C21.6705 25.483 21.483 25.6705 21.3371 25.8889C21 26.3933 21 27.0955 21 28.5C21 29.9045 21 30.6067 21.3371 31.1111C21.483 31.3295 21.6705 31.517 21.8889 31.6629C22.3933 32 23.0955 32 24.5 32H25M25 25H25.5C26.9045 25 27.6067 25 28.1111 25.3371C28.3295 25.483 28.517 25.6705 28.6629 25.8889C29 26.3933 29 27.0955 29 28.5M25 25V28.5M25 32H25.5C26.9045 32 27.6067 32 28.1111 31.6629C28.3295 31.517 28.517 31.3295 28.6629 31.1111C29 30.6067 29 29.9045 29 28.5M25 32V28.5M25 28.5H29" stroke="#FF7032" stroke-width="1.5"/>
</svg>
